<svg xmlns="http://www.w3.org/2000/svg" width="868" height="860"><path d="M152.5 2.033C119.285 3.98 89.311 12.401 65.623 26.44 29.677 47.745 10.567 78.194 3.237 125.845c-1.48 9.624-1.673 36.014-1.991 272.655-.356 265.311-.085 291.389 3.295 317 8.627 65.376 33.435 106.407 77.417 128.044 12.799 6.296 24.785 9.863 44.042 13.106 9.838 1.657 28.572 1.79 297 2.11 187.54.223 292.968-.014 305.225-.686 36.257-1.987 62.079-10.17 83.991-26.615 29.391-22.058 46.433-53.892 52.977-98.959 1.923-13.244 1.924-571.041.001-586.5-5.509-44.283-19.947-78.199-43.875-103.06C800.155 20.949 774.946 9.073 737 3.217c-9.474-1.461-37.921-1.636-291-1.783-154.275-.09-286.35.18-293.5.599m293 153.828c-4.155 2.566-5.579 4.373-11.281 14.322-8.023 13.998-8.93 18.968-5.092 27.891l2.127 4.944-2.559 3.867c-2.321 3.507-3.083 3.933-8.173 4.569l-5.614.701.214 4.681c.187 4.108-.296 5.352-3.951 10.172-2.291 3.021-4.908 7.742-5.816 10.492-.908 2.75-3.105 8.375-4.882 12.5-2.528 5.867-3.375 9.514-3.888 16.753-.634 8.92-.836 9.531-5.621 17-5.016 7.829-6.094 12.064-3.598 14.136 1.152.956 1.155 2.033.016 6.872-1.935 8.22-1.741 10.249 1.605 16.848 1.643 3.24 2.993 6.361 3 6.936.007.575-4.074 8.225-9.07 17-13.506 23.726-13.324 23.326-11.85 26.08 1.159 2.165.897 2.654-3.479 6.506-2.602 2.291-9.03 10.286-14.284 17.767-5.254 7.481-10.734 14.612-12.178 15.847-3.114 2.663-7.93 2.925-12.292.669-4.12-2.13-16.166-2.937-22.756-1.524-2.94.63-10.348 3.117-16.462 5.526-17.159 6.761-30.198 8.909-40.616 6.689-5.453-1.162-11.884-.721-15.247 1.045-.96.504-2.639 2.666-3.73 4.804-1.527 2.995-3.997 5.103-10.753 9.178-10.033 6.052-10.916 6.951-15.736 16.014-4.044 7.606-4.327 9.826-1.57 12.322 2.891 2.616 12.085 1.721 19.476-1.895 4.422-2.163 8.58-3.149 17.796-4.22 6.615-.768 12.417-1.639 12.895-1.934.478-.295.869-1.389.869-2.431 0-2.71 4.672-3.781 24-5.5 36.096-3.21 45.365-4.464 48.21-6.525 2.3-1.667 4.365-1.963 13.684-1.963 6.037 0 12.095-.426 13.464-.946 1.368-.52 8.935-5.841 16.815-11.825 23.737-18.023 22.612-17.417 33.064-17.802 4.964-.182 12.091-1.121 15.837-2.086 6.596-1.699 6.877-1.695 8.892.129 1.561 1.412 2.367 1.597 3.224.74.857-.857 2.078-.338 4.884 2.074 2.058 1.769 9.037 7.266 15.509 12.216 13.213 10.106 35.569 28.349 36.577 29.847 1.005 1.492-.312 8.02-1.847 9.155-1.118.827-.826 2.925 1.672 12 3.123 11.347 7.427 23.492 9.569 26.998 1.382 2.263 1.764 4.201 4.131 21 .929 6.6 1.598 15.074 1.485 18.832-.197 6.54-.067 6.962 3.062 9.888 6.591 6.164 6.042 6.059 22.597 4.33 22.47-2.345 40.306-8.162 42.972-14.013 1.546-3.392 1.543-9.206-.004-10.162-1.992-1.231-14.903-3.266-21.079-3.322-6.761-.062-12.028-2.017-16.218-6.021-1.65-1.576-4.125-3.016-5.5-3.199l-2.5-.333-2.808-26.485c-2.055-19.385-3.221-26.942-4.35-28.19-1.306-1.442-1.38-2.752-.483-8.515.584-3.745 1.343-9.578 1.688-12.961.605-5.944.513-6.281-2.744-10-1.853-2.117-5.304-6.465-7.668-9.663-5.292-7.161-23.894-28.532-33.791-38.821-4.039-4.2-7.408-8.475-7.487-9.5-.079-1.026-.035-4.852.097-8.502.178-4.941-.291-7.837-1.836-11.33l-2.076-4.693 2.373-5.67c1.881-4.496 2.921-10.8 5.023-30.447 2.946-27.549 2.769-32.01-2.007-50.392-1.337-5.146-2.405-9.913-2.374-10.594.089-1.928 9.546-8.682 16.698-11.925 6.125-2.777 6.817-2.879 12.996-1.917 5.275.821 7.217.727 10.126-.488 1.98-.827 4.505-1.302 5.611-1.055 2.545.567 7.906-2.467 8.343-4.722.683-3.526-12.527-13.63-17.82-13.63-1.137 0-4.742 1.35-8.011 3-3.269 1.65-7.441 3-9.271 3-1.831 0-3.856.527-4.499 1.17-1.693 1.693-24.391 1.766-24.969.08-.299-.875.887-1.25 3.956-1.25 5.229 0 6.783-1.295 6.783-5.653 0-2.592.812-3.905 4-6.467 3.42-2.748 4-3.774 4-7.071 0-2.745.973-5.272 3.376-8.765 1.857-2.699 3.669-6.468 4.027-8.376 1.294-6.898-2.929-18.924-9.008-25.652-4.271-4.728-7.767-6.761-14.895-8.66-6.737-1.795-9.447-1.69-13 .505M611.939 513.31c-12.284 3.461-20.373 14.705-20.278 28.19.062 8.806 2.679 14.674 9.315 20.881 11.734 10.976 30.823 9.405 40.919-3.367 4.679-5.919 6.471-12.042 5.919-20.225-.509-7.545-2.905-12.88-8.132-18.107-7.023-7.023-18.323-10.026-27.743-7.372M233 681.5V721h12v-79h-12v39.5m26 0V721h10.97l.265-29.25.265-29.25 14.794 29.25L300.088 721H313v-79H302.031l-.265 28.25-.266 28.25-14.269-28.25L272.962 642H259v39.5m68 0V721h10.97l.265-29.202.265-29.202 14.813 29.202L368.126 721H381v-79H370.031l-.265 28.25-.266 28.25-14.253-28.25L340.993 642H327v39.5m88.882-38.119c-13.708 4.898-20.662 16.131-21.645 34.963-1.04 19.939 5.378 33.882 18.581 40.366 7.904 3.881 18.308 3.892 25.805.026 11.142-5.744 17.112-16.749 18.096-33.355 1.225-20.692-6.42-36.132-20.501-41.401-6.066-2.269-14.932-2.531-20.336-.599m53.331 27.369c.366 26.703.55 29.145 2.584 34.291 2.5 6.325 7.934 12.124 13.554 14.466 2.365.985 6.731 1.604 11.319 1.604 8.909 0 14.772-2.398 19.303-7.895 5.968-7.239 6.388-9.839 6.794-41.966l.368-29.25h-10.974l-.331 28.75c-.366 31.907-.639 33.334-7.129 37.29-4.147 2.529-12.054 2.592-16.639.133-6.768-3.63-7.062-5.188-7.062-37.407V642h-12.182l.395 28.75M534 648v6h21v67h12v-67h21v-12h-54v6m75.383-3.655c-9.047 4.313-13.163 12.732-10.367 21.204 1.776 5.382 8.22 11.922 16.422 16.669 17.444 10.096 20.501 13.23 19.104 19.59-.355 1.618-1.784 4.01-3.174 5.316-2.261 2.124-3.449 2.376-11.199 2.376-7.013 0-9.518-.431-13.115-2.254-2.445-1.24-4.748-1.915-5.117-1.5-.369.415-1.379 2.894-2.245 5.509l-1.574 4.755 2.891 1.495c3.909 2.021 14.565 4.462 19.559 4.48 5.567.02 13.249-2.399 17.444-5.494 8.216-6.061 10.25-15.56 5.41-25.271-3.106-6.233-5.665-8.481-17.761-15.6-9.823-5.781-17.213-12.739-16.235-15.287.316-.823.574-1.898.574-2.389 0-.491 1.456-1.645 3.235-2.565 4.754-2.459 15.071-2.222 21.193.486 2.685 1.188 4.98 2.041 5.101 1.897.121-.144.906-2.638 1.745-5.543l1.525-5.281-4.149-2.165c-3.25-1.695-6.319-2.241-14.15-2.516-8.955-.315-10.535-.097-15.117 2.088m-190.238 9.725c-4.977 1.993-8.499 5.457-11.023 10.839-2.335 4.978-2.621 6.797-2.611 16.591.009 9.327.358 11.758 2.299 15.988 4.15 9.046 9.115 12.512 17.923 12.512 9.321 0 16.063-6.08 18.854-17 3.023-11.832.541-27.692-5.375-34.355-4.1-4.616-14.209-6.921-20.067-4.575" fill="undefined" fill-rule="evenodd"/></svg>