<svg xmlns="http://www.w3.org/2000/svg" width="484" height="387"><path d="M35.679 2.056C13.518 4.631 5.318 11.981 2.035 32.213 1.371 36.304 1.02 94.908 1.03 200c.013 156.2.076 161.637 1.903 165.661 2.546 5.607 8.622 11.485 15.197 14.702 12.218 5.977.55 5.702 227.644 5.372 195.205-.283 208.127-.408 214.371-2.076 10.425-2.784 15.039-6.257 18.998-14.298l3.357-6.819V27.5l-2.381-5.907C475.46 10.03 466.804 4.502 449.5 2.037 441.073.836 46.015.854 35.679 2.056m206.102 51.007C239.331 54.491 233 66.197 233 69.299c0 1.434.521 3.751 1.159 5.15.965 2.119.856 2.877-.655 4.547-.998 1.102-2.869 2.004-4.159 2.004-1.875 0-2.345.536-2.345 2.671 0 1.469-.664 3.405-1.474 4.301C222.922 90.849 218 104.144 218 108.3c0 2.79-.945 5.498-3.081 8.827-1.81 2.82-2.767 5.311-2.319 6.035.42.679.841 3.733.937 6.786.096 3.054.491 6.677.879 8.052.549 1.945-.424 4.498-4.381 11.5-2.798 4.95-4.901 9.752-4.675 10.672.232.943-.874 2.904-2.536 4.497-1.622 1.553-5.034 5.877-7.583 9.608-4.936 7.224-7.629 8.779-11.862 6.85-4.194-1.911-9.386-1.273-20.293 2.493-9.638 3.328-11.074 3.566-17.797 2.957l-7.313-.663-3.238 3.395c-1.781 1.868-4.89 4.376-6.908 5.575-4.169 2.477-8.079 8.373-7.631 11.509.419 2.933 4.294 3.172 10.673.657 2.861-1.127 6.917-2.05 9.012-2.05 2.375 0 4.679-.753 6.116-2 1.268-1.1 2.624-2 3.013-2 4.601 0 31.686-3.304 33.044-4.031.996-.533 4.479-.969 7.74-.969 5.133 0 6.449-.417 9.815-3.109 11.975-9.578 16.386-12.115 21.676-12.468 2.866-.191 6.562-.61 8.212-.931 3.913-.763 6.58.788 21.508 12.508l12.1 9.5-.531 4.222c-.395 3.136.252 6.481 2.512 13 3.346 9.651 6.224 24.528 5.414 27.981-.363 1.544.307 2.975 2.24 4.787 2.564 2.404 3.213 2.541 9.257 1.957 12.652-1.221 21.736-4.387 23.059-8.036 1.237-3.411-.281-4.398-8.863-5.764-4.603-.732-8.958-2.026-10.003-2.972-1.018-.921-2.324-1.675-2.902-1.675-.612 0-1.529-4.918-2.191-11.75-.626-6.463-1.53-12.96-2.009-14.438-.479-1.479-.637-5.605-.35-9.169l.52-6.481-6.263-7.664c-3.444-4.216-9.281-10.92-12.97-14.898l-6.707-7.234-.615-7.334c-.338-4.034-.231-8.053.238-8.933.47-.879 1.437-7.579 2.151-14.889 1.275-13.054 1.064-16.61-1.682-28.414-.559-2.404-.097-3.04 4.175-5.75 3.715-2.356 5.949-3.047 9.858-3.052 6.219-.006 12.566-1.675 12.518-3.291-.046-1.495-6.786-6.703-8.675-6.703-.763 0-2.668.662-4.232 1.47-3.341 1.728-16.502 3.491-18.205 2.438-.73-.45-.26-.856 1.236-1.067 1.621-.229 2.518-1.092 2.737-2.629.178-1.259 1.191-2.829 2.25-3.491 1.059-.661 1.925-2.053 1.925-3.094 0-1.04.976-3.471 2.169-5.401 1.977-3.198 2.061-3.921.943-8.118-1.718-6.456-3.629-8.986-8.44-11.17-4.667-2.119-7.35-2.356-9.891-.875m81.437 179.6c-7.912 3.9-10.344 14.543-4.942 21.63 5.074 6.657 14.85 7.428 20.649 1.628 7.58-7.58 5.298-19.423-4.535-23.531-4.296-1.795-7.115-1.726-11.172.273M136.229 315.75l.271 19.75h5l.271-19.75.271-19.75h-6.084l.271 19.75M149 316v20h4.947l.276-14.75.277-14.75 7.824 14.75c7.35 13.857 8.001 14.75 10.75 14.75H176v-40h-5v13.5c0 7.425-.345 13.5-.767 13.5-.422 0-3.795-6.075-7.495-13.5-6.721-13.486-6.732-13.5-10.233-13.5H149v20m34 0v20h4.947l.276-14.75.277-14.75 7.807 14.75c7.352 13.891 7.978 14.75 10.75 14.75H210v-40h-5v13.5c0 7.425-.345 13.5-.767 13.5-.422 0-3.795-6.075-7.495-13.5-6.721-13.486-6.732-13.5-10.233-13.5H183v20m42-18.194c-5.044 2.781-8.238 9.487-8.298 17.425-.062 8.161 1.622 12.968 5.838 16.67 6.204 5.447 14.208 5.284 19.898-.406 7.886-7.885 6.968-26.553-1.614-32.82-3.898-2.848-11.479-3.264-15.824-.869m29.006 11.444c.003 7.288.466 14.909 1.029 16.936 2.011 7.242 9.858 11.117 17.465 8.624 3.182-1.042 4.46-2.223 6.25-5.772 2.02-4.006 2.25-5.921 2.25-18.75V296h-6v15c0 13.667-.178 15.178-2 17-1.238 1.238-3.333 2-5.5 2s-4.262-.762-5.5-2c-1.822-1.822-2-3.333-2-17v-15h-6l.006 13.25m32.356-11.75c-1.222 3.184.417 4.5 5.607 4.5H297v34h6v-34h5c4.889 0 5-.067 5-3v-3h-13.031c-10.661 0-13.136.273-13.607 1.5m38.638-.794c-3.538 1.294-6 4.677-6 8.246 0 4.931 1.814 7.138 10.031 12.202 7.811 4.814 9.419 7.587 6.359 10.967-1.489 1.646-2.723 1.954-6.368 1.589-2.487-.249-5.491-.777-6.676-1.173-1.696-.567-2.306-.239-2.872 1.545-.919 2.896 1.3 4.612 7.086 5.479 8.464 1.27 15.922-3.523 15.736-10.111-.134-4.713-2.507-8.042-8.03-11.264-2.533-1.477-5.991-3.898-7.685-5.379-2.549-2.228-2.891-3.005-1.979-4.5 1.315-2.155 9.235-3 12.373-1.32 1.764.944 2.183.727 3.062-1.585.561-1.474.894-2.781.741-2.905-2.787-2.265-11.711-3.277-15.778-1.791m-96.579 5.737c-5.715 2.444-8.285 13.159-5.027 20.958 3.441 8.235 13.254 9.048 17.196 1.426 1.793-3.469 2.136-12.902.611-16.827-2.082-5.359-7.615-7.765-12.78-5.557" fill="undefined" fill-rule="evenodd"/></svg>